<?xml version="1.0" encoding="utf-8"?>
<!-- Generator: Adobe Illustrator 16.0.0, SVG Export Plug-In . SVG Version: 6.00 Build 0)  -->
<!DOCTYPE svg PUBLIC "-//W3C//DTD SVG 1.1//EN" "http://www.w3.org/Graphics/SVG/1.1/DTD/svg11.dtd">
<svg version="1.1" id="Слой_2" xmlns="http://www.w3.org/2000/svg" xmlns:xlink="http://www.w3.org/1999/xlink" x="0px" y="0px"
	 width="3239.354px" height="2000px" viewBox="0 0 3239.354 2000" enable-background="new 0 0 3239.354 2000" xml:space="preserve">
<rect display="none" fill="#FFFFFF" width="3600" height="2000"/>
<circle fill="#F3F3F3" cx="1726.313" cy="1629.379" r="1519.652"/>
<path d="M3235.594,1997H220.075c-1.48,0-2.69-1.211-2.69-2.691l0,0c0-1.479,1.21-2.688,2.69-2.688h3015.519
	c1.48,0,2.691,1.211,2.691,2.688l0,0C3238.285,1995.789,3237.074,1997,3235.594,1997z"/>
<path fill="#F4F4F4" stroke="#000000" stroke-width="3" stroke-miterlimit="10" d="M1401.505,1026.056l-39.582-0.909
	c12.718,16.482,15.573,31.666,7.656,44.517c-7.916,13.104-26.864,23.879-55.155,32.055c21.414-56.972,32.184-117.058,32.184-178.702
	c0-69.041-13.494-136.006-40.229-198.944c-25.694-60.865-62.552-115.63-109.531-162.48
	c-46.979-46.979-101.613-83.835-162.479-109.661c-63.071-26.604-130.035-40.101-198.946-40.101
	c-69.041,0-136.006,13.497-199.077,40.101c-7.524,3.245-15.054,6.618-22.318,10.123c-0.022,0.013-0.047,0.022-0.067,0.033
	c-21.985-6.709-43.4-12.208-64.063-16.395c-104.3-21.166-178.315-6.538-208.383,41.188
	c-28.611,45.396-13.036,113.723,43.739,193.417c-0.007,0.013-0.014,0.025-0.021,0.038c-7.657,14.146-14.535,28.681-20.895,43.735
	c-4.801,11.29-9.083,22.581-12.978,34.131c-106.676,6.356-163.777,25.133-184.541,59.135
	c-24.139,39.582,8.824,92.704,114.333,144.354c14.535,7.137,30.108,14.146,46.46,21.15c5.451,47.888,17.779,94.479,36.726,139.12
	c25.696,60.864,62.552,115.63,109.531,162.609c46.979,46.849,101.613,83.706,162.479,109.529
	c63.071,26.604,130.036,40.103,199.077,40.103c68.911,0,135.875-13.497,198.946-40.103
	c60.864-25.823,115.501-62.684,162.479-109.529c45.685-45.685,81.892-98.893,107.455-157.811
	c52.04-10.771,86.303-27.643,99.93-49.964C1413.705,1061.354,1412.536,1044.224,1401.505,1026.056z M1279.386,1109.762
	c-34.647,6.229-77.866,9.861-128.348,10.381c-78.335,0.956-168.302-5.229-263.111-17.726c7.979-17.367,15.798-35.214,23.427-53.465
	c29.422,9.843,57.975,17.639,85.203,23.164c31.195,6.333,59.664,9.459,85.074,9.459c59.563,0,102.235-17.195,123.313-50.649
	c3.469-5.512,6.299-11.354,8.478-17.525h-30.363c-0.502,0.927-1.036,1.839-1.597,2.729c-15.655,24.851-50.639,37.688-99.76,37.676
	c-23.492,0-50.238-2.932-79.631-8.896c-25.621-5.197-52.486-12.497-80.189-21.691c7.313-18.291,14.418-36.933,21.282-55.856
	c18.508-51.03,34.353-101.617,47.169-150.195c58.414,8.611,121.104,12.935,187.728,12.935c41.479,0,84.483-1.673,128.906-5.021
	c6.596,31.978,9.928,64.706,9.928,97.944C1316.891,987.771,1304.303,1050.584,1279.386,1109.762z M646.813,1363.186
	c-14.767-5.354-22.263-26.552-25.948-43.389c-5.829-26.607-6.886-63.979-3.048-108.08c1.938-22.303,5.057-46.016,9.254-70.814
	c60.524,16.132,120.467,36.878,178.833,61.88c-13.146,22.669-26.44,43.688-39.732,62.743
	c-25.326,36.304-50.093,64.313-71.624,80.998C680.921,1357.079,661.582,1368.54,646.813,1363.186z M819.271,1179.047
	c-61.094-26.326-123.901-48.082-187.343-64.876c2.236-11.513,4.688-23.226,7.354-35.118c17.641,4.012,35.53,7.896,53.646,11.631
	c53.011,10.845,105.895,20.047,157.657,27.494C840.333,1139.391,829.867,1159.725,819.271,1179.047z M704.607,1071.477
	c-20.481-4.214-40.666-8.614-60.506-13.188c9.34-38.858,20.813-79.37,34.205-120.648c69.618,42.799,140.418,77.609,207.455,102.314
	c-8.408,20.078-17.048,39.656-25.871,58.604C808.975,1091.253,756.878,1082.193,704.607,1071.477z M534.572,546.943
	c4.435,9.087,10.561,20.351,18.818,33.112c35.194,54.395,81.68,93.82,114.477,117.318c18.833,13.493,38.93,25.999,60.232,37.501
	c-19.441,42.367-37.961,87.583-54.987,134.534c-3.175,8.753-6.265,17.492-9.279,26.211
	c-101.706-66.202-187.813-142.167-244.3-215.687c-0.008-0.01-0.019-0.021-0.023-0.027c14.144-24.125,30.356-46.955,48.519-68.356
	c7.523-8.825,15.313-17.391,23.487-25.695c1.167-1.169,2.206-2.204,3.374-3.372C507.521,569.848,520.771,558.008,534.572,546.943z
	 M969.459,473.581c14.768,5.354,22.263,26.551,25.951,43.388c5.829,26.608,6.883,63.982,3.048,108.081
	c-4.198,48.271-13.864,103.095-28.25,161.472c-17.373-2.986-34.342-6.367-50.867-10.17c-57.095-13.13-109.143-31.09-155.624-53.647
	c27.735-57.841,57.063-109.423,86.387-151.457c25.325-36.304,50.094-64.313,71.623-80.999c11.234-8.706,26.354-18.025,39.594-18.025
	C964.136,472.219,966.869,472.641,969.459,473.581z M911.42,802.315c16.916,3.927,34.29,7.413,52.059,10.509
	c-12.481,46.974-27.859,95.896-45.775,145.296c-6.906,19.041-14.059,37.785-21.412,56.156
	c-67.301-24.711-138.732-60.055-208.96-103.707c3.629-10.61,7.374-21.255,11.243-31.927c16.645-45.895,34.711-90.063,53.652-131.432
	C799.96,770.348,853.189,788.796,911.42,802.315z M1175.825,582.481c44.253,44.253,79.034,95.772,103.302,153.135
	c8.655,20.493,15.835,41.435,21.529,62.751c-110.993,8.116-212.7,5.564-303.617-7.591c14.427-58.948,24.141-114.4,28.4-163.384
	c4.701-54.088,4.131-118.152-17.802-154.207c5.083,1.953,10.146,3.988,15.181,6.121
	C1080.18,503.577,1131.7,538.227,1175.825,582.481z M835.422,441.414c33.356,0,66.163,3.354,98.232,10.016
	c-37.827,16.469-76.446,62.295-105.764,104.319c-30.004,43.009-59.966,95.647-88.258,154.568
	c-19.09-10.373-37.146-21.578-54.109-33.613c-56.273-39.924-89.985-81.729-108.358-109.769
	c-9.754-14.89-16.332-27.569-20.521-36.673c19.752-14.05,40.521-26.598,62.237-37.553c0.007,0.002,0.015,0.004,0.021,0.006
	c8.84-4.462,17.854-8.637,27.004-12.555c0.665-0.283,1.319-0.575,1.985-0.856c0.151-0.065,0.312-0.127,0.462-0.192
	c1.952-0.825,3.911-1.627,5.875-2.421c0.525-0.208,1.063-0.421,1.579-0.628C712.784,453.094,773.259,441.414,835.422,441.414z
	 M364.993,501.676C380.647,476.825,415.631,464,464.751,464c23.494,0,50.239,2.933,79.632,8.9
	c11.159,2.259,22.561,4.917,34.15,7.976c0.01,0.003,0.021,0.006,0.029,0.008c-38.144,22.062-73.172,49.045-104.698,80.703
	c-6.618,6.489-12.979,13.237-19.207,20.245c-7.787,8.566-15.187,17.521-22.321,26.605c-11.42,14.532-21.932,29.718-31.666,45.291
	c-0.008,0.014-0.016,0.024-0.023,0.037C357.243,589.319,344.194,534.671,364.993,501.676z M391.587,735.616
	c4.283-9.863,8.695-19.597,13.497-29.069c0.004-0.008,0.008-0.016,0.012-0.021c59.479,74.344,147.147,150.344,249.58,216.257
	c-14.521,44.205-26.917,87.647-36.917,129.283c-74.521-18.028-143.585-38.434-204.106-60.271
	c-12.722-4.542-25.047-9.214-36.857-13.886c-7.008-2.729-13.886-5.58-20.634-8.438c-1.038-10.382-1.817-20.895-2.077-31.403
	c-0.13-5.063-0.26-9.992-0.26-15.057c0-5.84,0.13-11.81,0.26-17.646c1.687-43.735,9.084-86.434,22.062-127.7
	c2.206-7.008,4.542-13.887,7.138-20.764C385.877,749.762,388.603,742.624,391.587,735.616z M304.767,946.373
	c-92.011-44.903-134.059-88.248-115.241-119.005c15.184-24.917,70.468-41.788,155.083-48.02
	c-10.382,35.04-16.742,71.247-19.208,107.977c-0.779,10.898-1.167,21.802-1.297,32.833v2.854c0,11.031,0.39,22.063,1.038,32.963
	C318.134,952.862,311.386,949.617,304.767,946.373z M374.587,1001.527c12.458,4.672,25.177,9.344,38.284,13.887
	c60.253,20.879,127.796,40.283,200.044,57.5c-2.624,11.706-5.043,23.243-7.265,34.6c-5.904-1.433-11.813-2.835-17.727-4.181
	c-99.884-22.735-174.838-27.36-209.583-28.144c-8.605-25.926-14.935-52.438-18.939-79.505
	C364.464,997.635,369.525,999.581,374.587,1001.527z M391.587,1110.41c-1.084-2.576-2.141-5.161-3.179-7.75
	c37.056,1.491,105.754,7.104,193.507,27.079c6.279,1.429,12.554,2.927,18.825,4.456c-4.52,26.342-7.852,51.516-9.907,75.175
	c-3.896,44.827-4.175,96.512,8.328,133.421c-38.055-21.424-72.954-47.926-104.273-79.245
	C450.636,1219.292,415.855,1167.771,391.587,1110.41z M1022.818,1366.718c-59.438,25.177-122.379,37.896-187.396,37.896
	c-50.086,0-99.015-7.559-146.02-22.531c35.623-18.671,71.414-61.552,98.978-101.063c14.217-20.381,28.424-42.934,42.45-67.274
	c80.868,36.622,158.625,81.613,231.668,134.026C1049.609,1354.655,1036.38,1360.98,1022.818,1366.718z M1175.825,1263.546
	c-26.616,26.694-55.929,49.888-87.585,69.423c-76.729-56.079-158.707-104.078-244.115-142.934
	c11.742-21.516,23.314-44.239,34.612-67.961c78.177,10.356,153.334,16.576,221.948,18.184c17.908,0.521,35.299,0.521,52.17,0.391
	c43.731-0.52,82.666-3.112,116.02-7.784C1245.514,1181.268,1214.239,1225.132,1175.825,1263.546z"/>
<path fill="#020202" d="M2379.333,962.579c0,0,96.272,94.746,100.677,130.472c4.405,35.729-43.666,91.615-43.666,91.615
	L2379.333,962.579z"/>
<path fill="#020202" d="M2344.586,1946.648c0,0-3.122,50.366-12.867,51.091c-1.296,0.096-49.425,0.096-49.425,0.096l-61.438-0.356
	c0,0,0.401-14.803,18.36-17.933c17.96-3.13,48.021-15.751,58.896-39.487C2309.559,1915.088,2344.586,1946.648,2344.586,1946.648z"/>
<path d="M2481.43,1946.648c0,0-3.123,50.366-12.867,51.091c-1.297,0.096-49.425,0.096-49.425,0.096l-61.438-0.356
	c0,0,0.399-14.803,18.36-17.933c17.959-3.13,48.019-15.751,58.896-39.487C2446.4,1915.088,2481.43,1946.648,2481.43,1946.648z"/>
<path fill="#FFFFFF" stroke="#000000" stroke-width="2" stroke-miterlimit="10" d="M2276.544,1405.323
	c0,0,16.069,102.77,76.012,285.202c59.942,182.434,68.111,261.432,68.111,261.432l64.305-1.803c0,0,0.548-199.377-27.077-291.115
	c-27.625-91.739-5.961-330.729-5.961-330.729L2276.544,1405.323z"/>
<path fill="#FFFFFF" stroke="#000000" stroke-width="2" stroke-miterlimit="10" d="M2245.252,1333.941
	c0,0-2.275,154.867,24.52,345.017s17.713,270.865,17.713,270.865l64.178,2.134c0,0,38.352-190.221,27.354-285.395
	c-10.996-95.178,52.521-326.586,52.521-326.586L2245.252,1333.941z"/>
<path fill="#FFFEFD" stroke="#000000" stroke-width="2" stroke-miterlimit="10" d="M2369.485,971.531l-30.271,22.418l-43.745-9.209
	c0.605-3.99,3.493-20.523,6.123-35.499c0.158-0.883,0.317-1.769,0.47-2.63c2.252-12.742,4.194-23.688,4.194-23.688l40.857-20.364
	l15.23-7.592c-0.04,0.271-1.181,14.145-1.34,16.166C2358.152,947.098,2369.485,971.531,2369.485,971.531z"/>
<path fill="#FFFFFF" stroke="#000000" stroke-width="2" stroke-miterlimit="10" d="M2298.534,960.22
	c0.959-0.401,59.507-17.681,65.866-15.581c6.358,2.103,10.127,14.406,10.127,14.406l-95.769,21.651
	C2278.762,980.696,2286.3,965.371,2298.534,960.22z"/>
<path fill="#050505" d="M2456.191,1353.061c-9.927,45.272-175.092,50.645-217.664,9.549c-4.845-4.688-5.08-26.479-3.254-55.862
	c3.569-57.41,15.045-143.771,15.488-187.891c0.221-21.311,3.146-43.104,7.046-62.892c8.3-42.178,20.95-75.271,20.95-75.271
	s80.672-26.08,95.77-21.646C2447.25,980.413,2466.116,1307.786,2456.191,1353.061z"/>
<path d="M2235.273,1306.744c3.569-57.41,15.045-143.771,15.488-187.891c0.221-21.311,3.146-43.104,7.046-62.892l48.529-8.563
	C2306.34,1047.4,2353.786,1241.196,2235.273,1306.744z"/>
<path fill="#FFFFFF" d="M2261.553,1226.722c0,0,3.311,7.907-3.639,13.22c-6.947,5.309-11.452,13.906-9.861,20.191
	s16.829,16.539,22.111,14.887c5.282-1.651,16.033-9.934,14.875-13.248c-1.157-3.313,7.23-29.095-5.646-39.02
	C2266.515,1212.828,2261.553,1226.722,2261.553,1226.722z"/>
<path d="M2315.721,970.643c0,0-47.229,7.29-84.943,62.864c-37.711,55.574-62.521,96.892-55.571,116.921
	c6.944,20.03,70.269,89.498,81.186,89.498c10.916,0,28.533-7.938,29.525-25.803c0,0-44.582-66.817-35.802-76.824
	c3.752-4.274,57.879-48.218,65.605-28.37C2328.506,1141.77,2315.721,970.643,2315.721,970.643z"/>
<path fill="#FFFFFF" d="M2357.944,911.769c-8.972,17.169-42.405,32.018-56.349,37.476c0.155-0.883,0.314-1.769,0.467-2.63
	c2.252-12.742,4.197-23.688,4.197-23.688l40.854-20.364C2356.146,902.42,2361.646,904.703,2357.944,911.769z"/>
<path fill="#FCFCFC" stroke="#000000" stroke-width="2" stroke-miterlimit="10" d="M2286.405,920.532
	c0,0,73.711,22.994,87.323-23.13c13.61-46.124,32.295-74.223-14.192-90.854s-60.867-1.742-69.155,12.548
	S2267.582,913.362,2286.405,920.532z"/>
<path fill="#1A73E8" d="M2301.941,816.415c0,0,4.254,55.373,15.396,52.873c11.146-2.5,21.249-4.369,19.479,12.348
	c-1.767,16.718-17.352,36.14,16.908,38.802c34.26,2.663,84.297-88.834,75.021-106
	C2401.986,764.911,2263.164,756.049,2301.941,816.415z"/>
<path fill="#FFFFFF" stroke="#000000" stroke-width="3" stroke-miterlimit="10" d="M2822.088,1322.508c0,0-28.271,7.262-46.244,1.85
	c-17.973-5.414-48.904,3.478-53.886,10.028c-4.979,6.557-3.151,9.157,5.737,11.419c8.888,2.265,40.38,15.693,61.076,7.92
	c20.694-7.771,47.688-8.057,47.688-8.057L2822.088,1322.508z"/>
<path fill="#FFD954" stroke="#000000" stroke-width="2" stroke-miterlimit="10" d="M3066.43,1076.916
	c0,0-31.76,225.729-84.35,245.947c-25.949,9.976-140.631,32.59-174.557,34.858c0,0-8.312-6.738-6.284-34.183
	c0,0,120.151-44.111,137.222-68.101c25.404-35.703-15.771-145.855,16.105-179.39
	C2986.444,1042.521,3040.133,1028.111,3066.43,1076.916z"/>
<path fill="#FFFFFF" stroke="#000000" stroke-width="2" stroke-miterlimit="10" d="M3062.373,1942.094v-49.641h77.484
	c2.091,0,3.802-1.711,3.802-3.802v-7.888c0-2.091-1.711-3.802-3.802-3.802h-77.484V1596.8c0-7.857-6.432-14.293-14.293-14.293
	h-15.334c-7.861,0-14.293,6.436-14.293,14.293v280.162h-77.484c-2.091,0-3.802,1.711-3.802,3.802v7.888
	c0,2.091,1.711,3.802,3.802,3.802h77.484v49.641c-56.066,4.236-100.979,24.435-113.579,50.51h271.078
	C3163.352,1966.525,3118.439,1946.33,3062.373,1942.094z"/>
<path fill="#FFFFFF" stroke="#000000" stroke-width="2" stroke-miterlimit="10" d="M3055.727,1552.483
	c-9.265,15.716-19.979,30.439-31.021,44.389c-34.136,43.093-71.293,78.623-77.77,112.209c-1.282,6.693-3.326,13.902-6,21.497
	c-2.7,7.691-6.045,15.781-9.899,24.145c-14.483,31.465-36.146,66.724-57.772,98.771c-37.39,55.399-72.547,101.629-72.547,101.629
	l-64.476-2.747c2.582-6.462,30.702-82.957,68.321-176.438c15.273-37.949,31.52-78.315,47.188-117.242
	c2.089-5.198,4.177-10.375,6.243-15.507c4.791-11.913,9.506-23.643,14.109-35.062c35.32-87.774,63.457-157.674,63.457-157.674
	s141.179-53.479,155.84-18.826C3103.489,1460.2,3093.643,1488.191,3055.727,1552.483z"/>
<path d="M2798.698,1943.396c0,0-3.155,53.459-13.448,54.222c-1.369,0.102-117.75,0-117.75,0s0.928-16.167,19.896-19.472
	c18.971-3.31,50.722-16.642,62.213-41.711C2761.698,1910.061,2798.698,1943.396,2798.698,1943.396z"/>
<path d="M2947.995,1791.403c0,0,44.846,28.813,40.494,38.176c-0.579,1.245-25.362,45.633-25.362,45.633l-31.965,56.479
	c0,0-13.446-7.993-7.085-26.168c6.36-18.178,10.198-52.396-6.091-74.652C2900.852,1807.457,2947.995,1791.403,2947.995,1791.403z"/>
<path fill="#FFFFFF" stroke="#000000" stroke-width="2" stroke-miterlimit="10" d="M2888.438,1424.455
	c0,0-178.321,110.994-198.104,185.174c-19.781,74.179,235.727,232.428,235.727,232.428s28.021-24.727,32.97-42.856
	c0,0-115.493-138.367-140.545-169.387c-15.388-19.05,227.496-65.939,257.168-112.099s19.049-84.99,19.049-84.99L2888.438,1424.455z"
	/>
<path fill="#050505" d="M3221.749,1566.809h-362.672c-7.254,0-13.188,5.938-13.188,13.188v72.534
	c0,7.254,5.938,13.188,13.188,13.188h362.672c7.254,0,13.188-5.935,13.188-13.188v-72.534
	C3234.938,1572.744,3229.003,1566.809,3221.749,1566.809z"/>
<path fill="#FFFFFF" stroke="#020202" stroke-width="3" stroke-miterlimit="10" d="M3055.09,1034.322c0,0-70.37,39.34-112.83,28.357
	c0,0,9.603-13.681,27-24.46c-0.93-4.13-1.74-8.02-2.438-11.641c-4.063-20.729-4.79-32.79-4.79-32.79l32.42-29.05
	c8.97,1.897,17.35,3.68,21.8,4.62c0.42,2.14,0.88,4.22,1.398,6.26C3027.77,1015.963,3055.09,1034.322,3055.09,1034.322z"/>
<path fill="#FFD954" stroke="#020202" stroke-width="2" stroke-miterlimit="10" d="M3100.05,1238.662
	c-6.08,81.791,1.92,206.17-4.979,227.711c-5.961,18.59-73.79,7.539-100.87,1.34c-10.021-2.301-22.16-5.58-34.69-9.46
	c-34.97-10.83-73.08-26.29-77.17-37.771c-0.147-0.45-0.29-0.893-0.37-1.32c0-0.01,0-0.02,0-0.02c-0.068-0.291-0.12-0.58-0.158-0.86
	c-0.182-1.351-0.068-2.63,0.229-3.931c1.36-5.852,6.61-12.182,7.229-26.672c0.688-16.17,0.591-35.22,1.198-55.697
	c0.03-2.313,0.063-4.83,0.313-7.12l0.01-0.84c0.01-0.44,0.021-0.87,0.03-1.313c0.59-22.84,1.789-46.858,3.17-70.67
	c0.88-14.961,1.896-29.78,3.069-43.971c3.05-36.643,7.157-69.222,12.601-89.813c8.89-33.58,28.49-55.479,46.34-71.53l12.9-11.067
	c14.396,3.147,31.43,1.061,46.83-6.239c16.659-7.91,22.42-13.58,25.319-11.438C3079.54,1047.683,3107.23,1138.683,3100.05,1238.662z
	"/>
<path fill="#FFD954" d="M2959.51,1458.253c-34.97-10.83-73.08-26.29-77.17-37.771c-0.147-0.45-0.29-0.893-0.37-1.32
	c0-0.01,0-0.02,0-0.02c0-0.28-0.06-0.57-0.159-0.86c-0.181-1.351-0.067-2.63,0.229-3.931c1.36-5.852,6.61-12.182,7.229-26.672
	c0.688-16.17,0.59-35.22,1.197-55.697c0.03-2.313,0.063-4.83,0.313-7.12l0.01-0.84c0.01-0.44,0.021-0.87,0.03-1.313l132.1-59.91
	C3022.92,1262.803,3030.53,1369.263,2959.51,1458.253z"/>
<path fill="#FFFFFF" d="M3017.65,975.623c-4.804,12.13-19.17,40.729-50.83,50.959c-4.063-20.729-4.791-32.79-4.791-32.79
	l32.42-29.05c8.971,1.9,17.351,3.68,21.801,4.62C3016.67,971.502,3017.13,973.583,3017.65,975.623z"/>
<path fill="#FFFFFF" stroke="#000000" stroke-width="2" stroke-miterlimit="10" d="M2949.206,993.479
	c0,0,69.568,7.848,73.788-35.553c4.22-43.396,16.041-71.611-28.198-78.459c-44.239-6.845-54.491,8.875-59.424,23.021
	C2930.439,916.628,2931.219,990.318,2949.206,993.479z"/>
<path d="M3022.695,960.921c0,0-4.412-57.604-67.738-63.574c-43.375-4.087-19.191-41.419-14.568-47.374
	c0,0,33.232,4.559,67.297,10.188C3079.182,871.971,3029.717,951.953,3022.695,960.921z"/>
<polygon points="2855.535,1366.775 2683.148,1370.457 2634.139,1219.621 2628.049,1221.6 2679.86,1381.055 2855.76,1377.298 "/>
<path fill="#FFFFFF" stroke="#000000" stroke-width="3" stroke-miterlimit="10" d="M2836.638,1357.211c0,0-27.3,10.334-45.76,6.938
	c-18.46-3.4-48.222,8.849-52.45,15.908c-4.229,7.063-2.124,9.448,6.961,10.719c9.084,1.269,41.863,11.146,61.577,1.139
	c19.714-10.009,46.513-13.266,46.513-13.266L2836.638,1357.211z"/>
<path fill="#FFD954" stroke="#000000" stroke-width="2" stroke-miterlimit="10" d="M3052.414,1086.178
	c0,0-6.681,227.855-56.721,253.748c-24.691,12.776-136.182,47.896-169.647,53.896c0,0-9.003-5.784-10.017-33.281
	c0,0,114.558-57.089,128.878-82.813c21.313-38.284-31.755-143.229-3.771-180.068
	C2969.124,1060.813,3020.896,1040.57,3052.414,1086.178z"/>
<path fill="#020202" stroke="#000000" stroke-width="2" stroke-miterlimit="10" d="M1164.902,1105.835l-70.693,840.553
	c0,0-7.407,50.953,30.493,51.043c62.313,0.149,310.166,0,310.166,0s-46.901-10.604-46.333-34.471
	c0.67-28.13,82.625-865.08,82.625-865.08L1164.902,1105.835z"/>
<path fill="#FFFFFF" stroke="#000000" stroke-width="2" stroke-miterlimit="10" d="M1454.977,1982.181
	c-12.256,0.036-248.98,0.779-309.668,0c-26.445-0.329-31.084-23.515-31.304-38.521c-0.106-7.193,0.804-12.512,0.804-12.512
	l1.838-21.85l4.687-55.684l4.138-49.195l5.319-63.217l4.479-53.357l50.229-597.271l306.261-7.947c0,0-34.517,350.259-58.933,605.219
	c-2.727,28.407-5.318,55.646-7.716,81.071c-0.779,8.118-1.521,16.054-2.251,23.782c-2.267,24.123-4.333,46.272-6.135,65.834
	c-0.948,10.309-1.825,19.887-2.616,28.662c-3.116,34.384-4.941,56.34-4.968,60.515c-0.013,2.438,0.193,4.698,0.598,6.804
	C1414.764,1981.305,1450.377,1982.181,1454.977,1982.181z"/>
<polygon fill="#E2E2E2" stroke="#000000" stroke-width="2" stroke-miterlimit="10" points="421.134,648.438 593.329,1340.108 
	616.906,1434.835 697.105,1756.996 2187.094,1756.996 1891.489,648.438 "/>
<polygon fill="#020202" stroke="#000000" stroke-width="2" stroke-miterlimit="10" points="421.132,648.436 397.268,656.391 
	665.379,1781.061 697.107,1757 "/>
<polygon stroke="#000000" stroke-width="2" stroke-miterlimit="10" points="665.379,1781.061 2146.196,1781.061 2187.089,1757 
	697.107,1757 "/>
<polygon fill="#ED9F51" points="2114.91,1552.727 1873.143,663.093 418.75,663.093 418.75,648.436 1891.488,648.436 
	2132.449,1550.749 "/>
<polygon display="none" fill="#EFC02B" points="1351.635,1532.582 697.107,1757 616.906,1434.835 "/>
<polygon fill="#1A73E8" stroke="#000000" stroke-width="2" stroke-miterlimit="10" points="421.132,648.436 1891.488,648.436 
	2130.056,1539.369 635.355,1539.369 "/>
<path fill="#050505" d="M1481.6,1651.995c-4.246-21.851-25.4-39.563-47.252-39.563c-21.849,0-36.119,17.713-31.871,39.563
	c4.246,21.85,25.402,39.563,47.252,39.563C1471.577,1691.558,1485.848,1673.845,1481.6,1651.995z"/>
<polygon fill="#FFFFFF" points="2060.709,1500.762 684.009,1500.762 528.102,879.674 516.15,832.045 505.949,791.419 
	482.039,696.159 1838.896,696.159 1865.154,791.419 1876.354,832.045 1889.482,879.674 "/>
<polygon fill="#FCFCFC" stroke="#070707" stroke-width="9" stroke-miterlimit="10" points="1865.154,791.419 505.949,791.419 
	482.039,696.159 1838.896,696.159 "/>
<g>
	<path fill="#050505" d="M547.11,727.302c-6.577,0-10.579,5.331-8.939,11.908c1.64,6.576,8.3,11.908,14.877,11.908
		s10.579-5.332,8.939-11.908C560.348,732.633,553.688,727.302,547.11,727.302z"/>
	<path fill="#050505" d="M586.677,727.302c-6.577,0-10.579,5.331-8.938,11.908c1.64,6.576,8.301,11.908,14.877,11.908
		s10.579-5.332,8.938-11.908C599.915,732.633,593.254,727.302,586.677,727.302z"/>
	<path fill="#050505" d="M644.16,739.21c-1.643-6.577-8.3-11.908-14.877-11.908s-10.579,5.331-8.939,11.908
		c1.643,6.576,8.301,11.908,14.877,11.908S645.8,745.786,644.16,739.21z"/>
</g>
<g>
	<path fill="#EAB82F" d="M1629.341,1069.674c-9.938-39.863-50.487-72.296-90.389-72.296c-19.24,0-35.638,7.424-46.168,20.903
		c-10.97,14.041-14.267,32.795-9.274,52.806c9.939,39.864,50.488,72.296,90.389,72.296c19.24,0,35.639-7.424,46.168-20.902
		C1631.037,1108.438,1634.33,1089.686,1629.341,1069.674z M1615.464,1118.884c-9.399,12.032-24.162,18.658-41.563,18.658
		c-37.387,0-75.394-30.445-84.724-67.868c-4.545-18.229-1.629-35.203,8.21-47.797c9.4-12.032,24.162-18.658,41.565-18.658
		c37.385,0,75.391,30.445,84.722,67.868C1628.219,1089.314,1625.303,1106.29,1615.464,1118.884z"/>
	<polygon fill="#EAB82F" points="1565.598,1086.703 1558.332,1035.887 1557.759,1033.588 1537.294,1033.588 1537.867,1035.887 
		1555.939,1086.703 	"/>
	<polygon fill="#EAB82F" points="1553.693,1095.671 1558.279,1114.064 1576.904,1114.064 1572.318,1095.671 	"/>
</g>
<g>
	<path fill="#EFC02B" d="M1673.783,1242.316c-9.939-39.864-50.488-72.297-90.391-72.297c-19.238,0-35.637,7.424-46.168,20.9
		c-10.97,14.042-14.264,32.795-9.271,52.809c9.938,39.861,50.488,72.296,90.389,72.296c19.24,0,35.637-7.423,46.168-20.902
		C1675.479,1281.08,1678.771,1262.327,1673.783,1242.316z M1659.906,1291.526c-9.4,12.028-24.162,18.655-41.565,18.655
		c-37.385,0-75.391-30.443-84.722-67.865c-4.545-18.229-1.629-35.204,8.21-47.799c9.399-12.031,24.162-18.656,41.563-18.656
		c37.387,0,75.394,30.442,84.724,67.865C1672.661,1261.958,1669.746,1278.933,1659.906,1291.526z"/>
	<polygon fill="#EFC02B" points="1610.041,1259.346 1602.773,1208.528 1602.201,1206.229 1581.736,1206.229 1582.311,1208.528 
		1600.383,1259.346 	"/>
	<polygon fill="#EFC02B" points="1598.135,1268.313 1602.721,1286.708 1621.346,1286.708 1616.76,1268.313 	"/>
</g>
<g>
	<path d="M1826.132,1047.477c4.524,0,7.304-3.698,6.177-8.226c-1.129-4.524-5.754-8.227-10.276-8.227H1675.52
		c-4.521,0-7.303,3.702-6.175,8.227c1.128,4.525,5.753,8.226,10.278,8.226H1826.132z"/>
	<path d="M1807.996,930.608c-1.128-4.524-5.753-8.229-10.277-8.229h-146.511c-4.524,0-7.303,3.702-6.175,8.229
		c1.128,4.522,5.753,8.227,10.275,8.227h146.512C1806.345,938.835,1809.124,935.133,1807.996,930.608z"/>
	<path d="M1833.945,1078.816c4.522,0,7.304-3.702,6.176-8.229c-1.128-4.522-5.753-8.227-10.277-8.227h-146.51
		c-4.523,0-7.304,3.7-6.175,8.227c1.128,4.524,5.753,8.229,10.274,8.229H1833.945z"/>
	<path d="M1847.936,1101.929c-1.129-4.521-5.754-8.227-10.275-8.227h-146.51c-4.524,0-7.305,3.702-6.178,8.227
		c1.129,4.525,5.754,8.229,10.278,8.229h146.51C1846.284,1110.155,1849.063,1106.453,1847.936,1101.929z"/>
	<path d="M1870.574,1220.119c4.521,0,7.304-3.702,6.176-8.229c-1.129-4.521-5.754-8.227-10.277-8.227h-146.511
		c-4.524,0-7.303,3.702-6.175,8.227c1.128,4.525,5.753,8.229,10.277,8.229H1870.574z"/>
	<path d="M1878.388,1251.458c4.524,0,7.304-3.702,6.177-8.228c-1.129-4.524-5.754-8.229-10.275-8.229h-146.51
		c-4.525,0-7.307,3.702-6.178,8.229c1.127,4.522,5.752,8.228,10.277,8.228H1878.388z"/>
	<path d="M1892.377,1274.57c-1.128-4.524-5.753-8.229-10.277-8.229h-146.51c-4.521,0-7.303,3.702-6.175,8.229
		c1.128,4.522,5.753,8.227,10.276,8.227h146.511C1890.727,1282.797,1893.505,1279.096,1892.377,1274.57z"/>
</g>
<path fill="#FFFFFF" stroke="#000000" stroke-width="2" stroke-miterlimit="10" d="M1801.828,896.024l-10.229-41.018
	c-1.875-7.521-9.563-13.675-17.086-13.675h-1174.3c-7.521,0-12.141,6.154-10.266,13.675l10.226,41.017
	c1.875,7.521,9.563,13.676,17.085,13.676h1174.304C1799.084,909.699,1803.703,903.545,1801.828,896.024z"/>
<path d="M1432.659,841.335l17.045,68.364H617.26c-7.521,0-15.209-6.154-17.085-13.675l-10.226-41.017
	c-1.875-7.521,2.745-13.675,10.266-13.675L1432.659,841.335L1432.659,841.335z"/>
<polygon points="1582.197,862.946 1583.507,868.198 1596.499,868.198 1589.721,890.589 1596.592,890.589 1603.242,867.526 
	1602.1,862.946 "/>
<path d="M1617.655,862.472c-7.349,0-10.757,6.279-8.757,14.295c2.018,8.099,8.421,14.295,15.807,14.295
	c7.384,0,10.755-6.276,8.756-14.295C1631.443,868.671,1624.961,862.472,1617.655,862.472z M1623.415,885.573
	c-3.673,0-7.017-3.751-8.276-8.809c-1.279-5.134,0.174-8.806,3.809-8.806c3.633,0,7.025,3.791,8.275,8.806
	C1628.492,881.861,1627.088,885.573,1623.415,885.573z"/>
<path d="M1669.693,883.836c-0.984-3.949-4.448-7.069-8.438-7.069c-4.026,0-5.965,3.159-4.99,7.069
	c0.984,3.949,4.448,7.069,8.438,7.069C1668.73,890.905,1670.658,887.706,1669.693,883.836z M1663.886,887.313
	c-1.579,0-3.01-1.618-3.473-3.477c-0.474-1.896,0.002-3.476,1.661-3.476c1.58,0,3.01,1.62,3.473,3.476
	C1666.01,885.692,1665.545,887.313,1663.886,887.313z"/>
<polygon points="1657.021,862.946 1643.732,890.589 1648.434,890.589 1661.721,862.946 "/>
<path d="M1649.188,869.698c-0.981-3.949-4.445-7.069-8.437-7.069c-4.028,0-5.965,3.16-4.99,7.069
	c0.984,3.948,4.447,7.066,8.438,7.066C1648.225,876.767,1650.152,873.568,1649.188,869.698z M1639.907,869.698
	c-0.476-1.896,0.002-3.478,1.661-3.478c1.58,0,3.01,1.619,3.473,3.478c0.463,1.854-0.002,3.476-1.661,3.476
	C1641.801,873.174,1640.37,871.554,1639.907,869.698z"/>
<g>
	<path fill="#FFFFFF" stroke="#000000" stroke-width="2" stroke-miterlimit="10" d="M1377.645,1206.006
		c8.531,0,13.726-6.915,11.599-15.446l0,0c-2.127-8.528-10.769-15.444-19.298-15.444H685.207c-8.531,0-13.723,6.916-11.596,15.444
		l0,0c2.127,8.531,10.767,15.446,19.298,15.446H1377.645z"/>
	<path fill="#FFFFFF" stroke="#000000" stroke-width="2" stroke-miterlimit="10" d="M1390.432,1257.289
		c8.53,0,13.725-6.916,11.598-15.447c-2.128-8.531-10.77-15.447-19.301-15.447H697.993c-8.531,0-13.726,6.916-11.597,15.447
		c2.127,8.531,10.768,15.447,19.299,15.447H1390.432z"/>
	<path fill="#FFFFFF" stroke="#000000" stroke-width="2" stroke-miterlimit="10" d="M1415.381,1295.402
		c-2.127-8.53-10.768-15.446-19.298-15.446H711.347c-8.528,0-13.723,6.916-11.596,15.446c2.127,8.528,10.769,15.444,19.298,15.444
		h684.736C1412.316,1310.85,1417.508,1303.934,1415.381,1295.402z"/>
	<path fill="#FFFFFF" stroke="#000000" stroke-width="2" stroke-miterlimit="10" d="M1002.941,1122.649
		c2.673,10.723,13.531,19.415,24.254,19.415h76.373c10.724,0,17.248-8.692,14.572-19.415l-36.916-148.064
		c-2.674-10.723-13.531-19.415-24.256-19.415h-76.373c-10.723,0-17.248,8.692-14.572,19.415L1002.941,1122.649z"/>
	<path fill="#FFFFFF" stroke="#000000" stroke-width="2" stroke-miterlimit="10" d="M1135.127,1122.649
		c2.673,10.723,13.533,19.415,24.255,19.415h76.373c10.724,0,17.248-8.692,14.574-19.415l-36.917-148.064
		c-2.673-10.723-13.533-19.415-24.256-19.415h-76.373c-10.725,0-17.248,8.692-14.574,19.415L1135.127,1122.649z"/>
	<path fill="#FFFFFF" stroke="#000000" stroke-width="2" stroke-miterlimit="10" d="M1264.845,1122.649
		c2.673,10.723,13.533,19.415,24.257,19.415h76.373c10.725,0,17.248-8.692,14.573-19.415l-36.917-148.064
		c-2.673-10.723-13.533-19.415-24.256-19.415h-76.373c-10.723,0-17.248,8.692-14.574,19.415L1264.845,1122.649z"/>
</g>
<path fill="#FFFFFF" stroke="#000000" stroke-width="2" stroke-miterlimit="10" d="M977.053,1109.523L946.682,987.71
	c-4.479-17.973-22.683-32.542-40.652-32.542H647.463c-17.972,0-28.909,14.569-24.428,32.542l30.371,121.813
	c4.479,17.972,22.683,32.541,40.652,32.541h258.563C970.597,1142.064,981.534,1127.495,977.053,1109.523z"/>
<g>
	<path d="M902.766,1001.893c4.073,0,6.576-3.333,5.563-7.404l0,0c-1.018-4.074-5.182-7.407-9.254-7.407H657.477
		c-4.072,0-6.574,3.333-5.562,7.407l0,0c1.017,4.071,5.18,7.404,9.254,7.404H902.766z"/>
	<path d="M909.868,1030.383c4.073,0,6.575-3.333,5.561-7.406l0,0c-1.016-4.072-5.18-7.405-9.254-7.405H664.579
		c-4.074,0-6.577,3.333-5.563,7.405l0,0c1.019,4.073,5.183,7.406,9.256,7.406H909.868z"/>
	<path d="M922.532,1051.466c-1.019-4.074-5.183-7.407-9.255-7.407H671.682c-4.072,0-6.574,3.333-5.561,7.407s5.18,7.407,9.254,7.407
		h241.596C921.046,1058.873,923.548,1055.54,922.532,1051.466z"/>
	<path d="M736.636,1075.967h-56.998c-4.071,0-6.575,3.334-5.561,7.408c1.014,4.074,5.18,7.407,9.254,7.407h56.998
		c4.074,0,6.576-3.333,5.562-7.407C744.875,1079.301,740.71,1075.967,736.636,1075.967z"/>
</g>
<path fill="#FFFFFF" d="M1984.441,1434.755l-15.933-63.894c-2.35-9.431-11.896-17.069-21.321-17.069h-135.625
	c-9.431,0-15.164,7.642-12.813,17.069l15.931,63.894c2.354,9.427,11.897,17.069,21.325,17.069h135.624
	C1981.057,1451.824,1986.793,1444.182,1984.441,1434.755z"/>
<g>
	<path d="M1945.477,1378.3c2.14,0,3.449-1.748,2.916-3.886c-0.53-2.137-2.717-3.885-4.854-3.885h-126.725
		c-2.141,0-3.45,1.748-2.918,3.885c0.531,2.138,2.718,3.886,4.854,3.886H1945.477z"/>
	<path d="M1949.202,1393.244c2.137,0,3.448-1.749,2.917-3.886c-0.533-2.14-2.719-3.889-4.854-3.889H1820.54
		c-2.137,0-3.449,1.749-2.917,3.889c0.533,2.137,2.718,3.886,4.854,3.886H1949.202z"/>
	<path d="M1955.845,1404.303c-0.532-2.138-2.718-3.886-4.854-3.886h-126.728c-2.137,0-3.447,1.748-2.916,3.886
		c0.532,2.137,2.719,3.885,4.854,3.885h126.725C1955.064,1408.188,1956.377,1406.439,1955.845,1404.303z"/>
	<path d="M1858.336,1417.154h-29.896c-2.139,0-3.449,1.748-2.916,3.886l0,0c0.529,2.137,2.717,3.885,4.854,3.885h29.896
		c2.137,0,3.447-1.748,2.916-3.885C1862.657,1418.902,1860.473,1417.154,1858.336,1417.154z"/>
</g>
<g>
	<g>
		<path d="M1043.988,1388.001c3.218,0,5.176-2.608,4.374-5.826l0,0c-0.802-3.218-4.063-5.827-7.279-5.827H782.805
			c-3.218,0-5.176,2.609-4.374,5.827l0,0c0.804,3.218,4.063,5.826,7.279,5.826H1043.988z"/>
		<path d="M1048.813,1407.344c3.22,0,5.178-2.605,4.373-5.826l0,0c-0.802-3.218-4.062-5.826-7.276-5.826h-258.28
			c-3.218,0-5.176,2.608-4.374,5.826l0,0c0.802,3.221,4.062,5.826,7.279,5.826H1048.813z"/>
		<path d="M1050.943,1415.895H792.665c-3.218,0-5.176,2.608-4.374,5.826c0.802,3.221,4.061,5.826,7.279,5.826h258.275
			c3.221,0,5.178-2.605,4.374-5.826C1057.42,1418.503,1054.161,1415.895,1050.943,1415.895z"/>
		<path d="M1377.305,1388.001c3.221,0,5.178-2.608,4.375-5.826l0,0c-0.803-3.218-4.063-5.827-7.277-5.827h-258.278
			c-3.218,0-5.176,2.609-4.374,5.827l0,0c0.802,3.218,4.063,5.826,7.279,5.826H1377.305z"/>
		<path d="M1382.128,1407.344c3.218,0,5.177-2.605,4.374-5.826l0,0c-0.802-3.218-4.063-5.826-7.279-5.826h-258.275
			c-3.221,0-5.178,2.608-4.374,5.826l0,0c0.803,3.221,4.062,5.826,7.276,5.826H1382.128z"/>
		<path d="M1384.26,1415.895h-258.275c-3.221,0-5.179,2.608-4.375,5.826c0.803,3.221,4.062,5.826,7.277,5.826h258.278
			c3.218,0,5.176-2.605,4.374-5.826C1390.737,1418.503,1387.479,1415.895,1384.26,1415.895z"/>
		<path d="M1700.366,1388.001c3.218,0,5.176-2.608,4.374-5.826l0,0c-0.803-3.218-4.063-5.827-7.279-5.827h-258.278
			c-3.218,0-5.176,2.609-4.374,5.827l0,0c0.803,3.218,4.063,5.826,7.279,5.826H1700.366z"/>
		<path d="M1705.189,1407.344c3.218,0,5.176-2.605,4.373-5.826l0,0c-0.804-3.218-4.063-5.826-7.278-5.826h-258.278
			c-3.218,0-5.176,2.608-4.374,5.826l0,0c0.802,3.221,4.063,5.826,7.279,5.826H1705.189z"/>
		<path d="M1714.6,1421.721c-0.802-3.218-4.061-5.826-7.277-5.826h-258.277c-3.218,0-5.176,2.608-4.374,5.826
			c0.802,3.219,4.063,5.826,7.279,5.826h258.276C1713.443,1427.547,1715.402,1424.938,1714.6,1421.721z"/>
	</g>
	<g>
		<path d="M1764.566,1460.653H768.555c-8.799,0-17.731-7.127-19.918-15.892l-19.89-79.771c-1.132-4.54-0.313-9.026,2.253-12.312
			c2.516-3.22,6.367-4.99,10.846-4.99h996.012c8.801,0,17.734,7.127,19.918,15.89l19.892,79.771
			c1.133,4.541,0.312,9.026-2.253,12.312C1772.896,1458.881,1769.046,1460.653,1764.566,1460.653z M741.847,1353.531
			c-2.642,0-4.856,0.977-6.243,2.748c-1.471,1.883-1.893,4.476-1.188,7.301l19.89,79.771c1.551,6.213,8.075,11.462,14.251,11.462
			h996.015c2.642,0,4.855-0.979,6.241-2.748c1.473-1.886,1.896-4.479,1.188-7.304l-19.89-79.771
			c-1.551-6.212-8.075-11.461-14.25-11.461L741.847,1353.531L741.847,1353.531z"/>
	</g>
</g>
<g>
	<path fill="#AFCDFB" d="M776.336,529.208c-0.157-1.121-1.191-1.9-2.313-1.746l-22.334,3.123
		c-0.801-7.093-4.806-13.746-11.416-17.586l-1.354-0.785c-6.907-4.012-15.071-4.03-21.805-0.799l-8.825-22.132
		c-0.419-1.052-1.615-1.563-2.663-1.146c-1.051,0.419-1.563,1.611-1.146,2.663l9.065,22.737c-1.43,1.034-2.765,2.222-3.947,3.59
		c-0.938,1.073-1.779,2.254-2.521,3.527l-2.455,4.226c-11.587-6.729-20.228-11.748-20.53-11.925
		c-0.979-0.569-2.23-0.235-2.802,0.743c-0.568,0.979-0.235,2.23,0.743,2.802c0.304,0.177,8.941,5.194,20.527,11.924l-1.393,2.398
		c-1.333,2.294-2.22,4.729-2.701,7.203L670.4,541.95c-1.12,0.157-1.902,1.192-1.745,2.313c0.144,1.025,1.021,1.769,2.025,1.769
		c0.095,0,0.189-0.007,0.285-0.021l27.077-3.787c-0.08,8.125,4.078,16.09,11.567,20.438l1.352,0.786
		c7.195,4.179,15.756,4.039,22.639,0.395l9.627,24.145c0.319,0.802,1.092,1.291,1.903,1.291c0.253,0,0.511-0.047,0.759-0.146
		c1.052-0.419,1.563-1.608,1.146-2.663l-9.933-24.902c2.236-1.763,4.188-3.954,5.696-6.558l1.396-2.396
		c11.791,6.849,20.529,11.925,20.529,11.925c0.324,0.188,0.681,0.278,1.027,0.278c0.707,0,1.395-0.366,1.771-1.021
		c0.569-0.979,0.236-2.231-0.74-2.801c0,0-8.739-5.076-20.531-11.926l2.454-4.228c0.739-1.271,1.348-2.591,1.817-3.935
		c0.717-2.025,1.121-4.108,1.259-6.194l22.799-3.188C775.711,531.365,776.493,530.329,776.336,529.208z"/>
	<path fill="#E57970" d="M748.715,544.838l-5.906,10.168c-6.435,11.079-20.76,14.877-31.839,8.442l-1.352-0.785
		c-11.074-6.433-14.877-20.76-8.442-31.839l5.906-10.168c0.739-1.273,1.583-2.454,2.521-3.527l40.932,23.775
		C750.063,542.247,749.455,543.564,748.715,544.838z"/>
</g>
</svg>
